PathFileType	4	(X/Y/Z)	s03c0001.trc
DataRate	CameraRate	NumFrames	NumMarkers	Units	OrigDataRate	OrigDataStartFrame	OrigNumFrames
200	200	4	49	mm	200	250	2000
Frame#	Time	racr			lacr			c7			jug			rlel			rdr			llel			ldr			s2			lic			ric			lasi			rasi			rpsi			lpsi			rgt			lgt			rth1			rth2			rth3			rth4			rlfc			rmfc			rsh1			rsh2			rsh3			rsh4			rlmal			rmmal			rcal			rtoe			rmt5			rmt1			lth1			lth2			lth4			lth3			llfc			lmfc			lsh1			lsh2			lsh3			lsh4			llmal			lmmal			lcal			ltoe			lmt1			lmt5			
		X1	Y1	Z1	X2	Y2	Z2	X3	Y3	Z3	X4	Y4	Z4	X5	Y5	Z5	X6	Y6	Z6	X7	Y7	Z7	X8	Y8	Z8	X9	Y9	Z9	X10	Y10	Z10	X11	Y11	Z11	X12	Y12	Z12	X13	Y13	Z13	X14	Y14	Z14	X15	Y15	Z15	X16	Y16	Z16	X17	Y17	Z17	X18	Y18	Z18	X19	Y19	Z19	X20	Y20	Z20	X21	Y21	Z21	X22	Y22	Z22	X23	Y23	Z23	X24	Y24	Z24	X25	Y25	Z25	X26	Y26	Z26	X27	Y27	Z27	X28	Y28	Z28	X29	Y29	Z29	X30	Y30	Z30	X31	Y31	Z31	X32	Y32	Z32	X33	Y33	Z33	X34	Y34	Z34	X35	Y35	Z35	X36	Y36	Z36	X37	Y37	Z37	X38	Y38	Z38	X39	Y39	Z39	X40	Y40	Z40	X41	Y41	Z41	X42	Y42	Z42	X43	Y43	Z43	X44	Y44	Z44	X45	Y45	Z45	X46	Y46	Z46	X47	Y47	Z47	X48	Y48	Z48	X49	Y49	Z49	
250	1.2500	251.342789	1572.665527	585.636047	246.701859	1589.192749	204.117386	184.286530	1606.847534	397.956238	352.466400	1557.368774	396.468628	177.026596	1300.617065	694.235840	271.125458	1120.928955	889.833801	175.439209	1317.612671	97.342583	259.359406	1128.322021	-108.682053	153.770508	1066.014893	375.794617	288.910217	1166.285156	196.458069	281.925903	1151.489380	568.181946	351.200928	1104.953247	239.193878	352.279755	1101.158447	521.354370	155.111130	1106.529785	425.544159	158.425110	1115.177246	342.598511	264.038727	1008.708984	562.848633	277.266144	1015.484192	188.483246	278.713623	870.354492	577.767029	310.081635	787.043945	571.998413	300.619598	703.888611	557.367432	346.094910	792.791443	567.354980	295.769470	577.504822	525.567444	327.087311	557.243164	419.138550	241.986542	412.448578	553.244934	253.306503	323.358368	548.345520	218.043564	242.923431	542.813354	287.384430	320.133881	530.867920	208.609680	103.797394	531.389038	248.675552	122.006561	450.422272	165.094421	55.935417	483.624329	468.306244	91.453781	503.921661	353.313324	43.303162	563.556458	378.567535	81.766411	454.384644	290.404327	865.978210	175.036804	314.798004	783.096191	182.472885	350.819366	785.556702	184.491699	294.458344	698.151855	195.934418	309.951996	577.229248	221.171677	331.879883	559.126099	334.454224	251.180679	413.221252	184.744263	263.716797	329.023041	193.298050	228.788651	244.521393	196.791260	298.058105	324.999603	211.409912	220.429276	110.648552	206.050400	259.284180	124.795174	292.819061	172.370834	54.971878	258.092133	479.349487	92.821236	234.440033	389.020782	73.525734	285.922577	358.179474	50.863514	172.502533	
251	1.2550	251.359055	1572.664673	585.649536	246.720901	1589.181763	204.119415	184.312164	1606.854248	397.933319	352.475708	1557.364258	396.470673	177.049210	1300.600708	694.225403	271.146393	1120.907349	889.818481	175.457764	1317.589844	97.348579	259.361786	1128.300171	-108.657211	153.770508	1066.014893	375.794617	288.935608	1166.285156	196.462753	281.926849	1151.487915	568.181763	351.230499	1104.950562	239.205765	352.292511	1101.167480	521.366455	155.128387	1106.525635	425.540985	158.449936	1115.173096	342.601044	264.066010	1008.703003	562.849243	277.293976	1015.490967	188.470673	278.731445	870.351257	577.772339	310.110046	787.038330	572.003967	300.640503	703.881653	557.377869	346.099854	792.806885	567.358582	295.789795	577.503845	525.569519	327.104523	557.242859	419.123962	242.011978	412.456329	553.246643	253.315720	323.353363	548.353088	218.045364	242.921768	542.809937	287.393768	320.124115	530.858337	208.601746	103.812775	531.387512	248.671127	122.027397	450.424774	165.094437	55.935436	483.624329	468.305756	91.447632	503.907928	353.322388	43.325661	563.553955	378.574036	81.770561	454.379669	290.418762	865.989502	175.048889	314.822235	783.093811	182.453278	350.820404	785.575928	184.477661	294.466461	698.171997	195.924210	309.998047	577.228882	221.153046	331.882599	559.129333	334.469513	251.182220	413.219299	184.734085	263.723755	329.023651	193.288620	228.788269	244.533661	196.786270	298.051117	325.003510	211.393600	220.426758	110.670097	206.048569	259.277893	124.812668	292.822723	172.374619	54.978954	258.090668	479.327698	92.793472	234.431610	389.014648	73.527069	285.929596	358.182495	50.863800	172.493637	
252	1.2600	251.374298	1572.669434	585.637024	246.741653	1589.171997	204.122513	184.305099	1606.836792	397.967682	352.503479	1557.359009	396.478790	177.077133	1300.594238	694.221497	271.161377	1120.908691	889.831543	175.478897	1317.585815	97.350769	259.375946	1128.285889	-108.640091	153.782654	1066.024048	375.811676	288.936066	1166.280273	196.464172	281.978729	1151.469360	568.174316	351.244904	1104.945312	239.204758	352.309479	1101.159058	521.389282	155.150452	1106.536743	425.542053	158.478455	1115.170410	342.601654	264.081116	1008.704529	562.858032	277.325592	1015.493958	188.481796	278.742371	870.358826	577.779968	310.136139	787.040344	572.016479	300.662598	703.867737	557.367004	346.117981	792.810181	567.379578	295.813782	577.503174	525.567993	327.129791	557.238281	419.139069	242.036926	412.447235	553.237976	253.339264	323.356110	548.332825	218.061890	242.914627	542.795105	287.400208	320.128754	530.868286	208.604309	103.815277	531.405029	248.652115	122.018250	450.423706	165.111877	55.923054	483.647186	468.310364	91.448570	503.898438	353.313873	43.321098	563.546570	378.582764	81.774529	454.381714	290.429810	866.002258	175.046143	314.842346	783.098022	182.463242	350.833527	785.562744	184.479721	294.474609	698.145630	195.951050	309.972412	577.215332	221.165359	331.892792	559.122131	334.462769	251.187622	413.219513	184.735687	263.734711	329.026215	193.286377	228.788635	244.521393	196.791260	298.067108	325.002716	211.408264	220.427856	110.669563	206.044250	259.282135	124.789955	292.827423	172.381470	54.983955	258.083557	479.343842	92.797775	234.454453	389.007782	73.518799	285.908173	358.149078	50.863918	172.498169	
253	1.2650	251.389084	1572.661133	585.651672	246.762955	1589.163330	204.126816	184.359482	1607.072754	397.911560	352.515869	1557.380493	396.479523	177.092285	1300.560547	694.247009	271.224030	1120.904297	889.829590	175.480530	1317.572876	97.378395	259.376190	1128.268066	-108.639915	153.813461	1066.015747	375.813049	288.932007	1166.256470	196.481949	281.964020	1151.468140	568.179993	351.287964	1104.954590	239.227295	352.319031	1101.157837	521.383484	155.175049	1106.524170	425.545441	158.492264	1115.172729	342.595856	264.078888	1008.701843	562.856445	277.336548	1015.494019	188.471146	278.779999	870.350037	577.779724	310.130829	787.035156	572.016602	300.664398	703.877014	557.385193	346.139343	792.801392	567.392578	295.815613	577.500671	525.578918	327.166626	557.227478	419.144257	242.051636	412.452057	553.243958	253.349319	323.359802	548.347046	218.068054	242.923935	542.801758	287.416779	320.132629	530.870850	208.590637	103.814392	531.379517	248.649811	122.019630	450.417908	165.094452	55.935463	483.624329	468.290253	91.452461	503.902374	353.301392	43.311852	563.554565	378.579987	81.756073	454.389191	290.446472	865.988281	175.050507	314.841644	783.104736	182.463165	350.857635	785.576111	184.467316	294.480469	698.169739	195.935013	310.003357	577.220520	221.159668	331.927124	559.132568	334.467712	251.201080	413.222870	184.743561	263.735565	329.021973	193.293213	228.794739	244.540710	196.785202	298.083893	325.007660	211.415115	220.436523	110.659782	206.045929	259.292206	124.806366	292.828644	172.378326	54.987083	258.086578	479.331116	92.802628	234.435760	388.970398	73.496605	285.922241	358.180176	50.873302	172.484802	
